<svg width="40" height="40" viewBox="0 0 40 40" fill="none" xmlns="http://www.w3.org/2000/svg">
<rect width="40" height="40" rx="20" fill="url(#paint0_linear_49_12872)"/>
<path d="M30.002 20.0012C30.002 25.5241 25.5248 30.0012 20.002 30.0012C14.4791 30.0012 10.002 25.5241 10.002 20.0012C10.002 14.4784 14.4791 10.0012 20.002 10.0012C25.5248 10.0012 30.002 14.4784 30.002 20.0012ZM14.502 20.0012C14.502 23.0388 16.9644 25.5012 20.002 25.5012C23.0395 25.5012 25.502 23.0388 25.502 20.0012C25.502 16.9637 23.0395 14.5012 20.002 14.5012C16.9644 14.5012 14.502 16.9637 14.502 20.0012Z" fill="black"/>
<defs>
<linearGradient id="paint0_linear_49_12872" x1="20" y1="0" x2="20" y2="40" gradientUnits="userSpaceOnUse">
<stop stop-color="#2BFFFF"/>
<stop offset="1" stop-color="#2BFFFF" stop-opacity="0.41"/>
</linearGradient>
</defs>
</svg>
