<svg width="20" height="21" viewBox="0 0 20 21" fill="none" xmlns="http://www.w3.org/2000/svg">
<path d="M1.12671e-06 10.4999C0.000502681 8.30751 0.721484 6.17603 2.05199 4.43351C3.38249 2.69098 5.24877 1.43399 7.3636 0.855988C9.47844 0.277984 11.7246 0.411001 13.7565 1.23457C15.7883 2.05813 17.4932 3.5266 18.6087 5.41398C19.7243 7.30136 20.1886 9.50303 19.9304 11.6802C19.6721 13.8573 18.7055 15.8892 17.1794 17.4633C15.6533 19.0373 13.6521 20.0661 11.484 20.3915C9.31588 20.7168 7.10092 20.3207 5.18 19.2639L1.292 20.4479C1.11858 20.5007 0.934066 20.5054 0.758187 20.4615C0.582309 20.4175 0.421685 20.3266 0.293496 20.1984C0.165308 20.0702 0.074377 19.9096 0.0304305 19.7337C-0.0135161 19.5578 -0.00882534 19.3733 0.044001 19.1999L1.228 15.3059C0.42153 13.8325 -0.000796137 12.1796 1.12671e-06 10.4999ZM6 9.49991C6 9.76513 6.10536 10.0195 6.29289 10.207C6.48043 10.3946 6.73478 10.4999 7 10.4999H13C13.2652 10.4999 13.5196 10.3946 13.7071 10.207C13.8946 10.0195 14 9.76513 14 9.49991C14 9.2347 13.8946 8.98034 13.7071 8.79281C13.5196 8.60527 13.2652 8.49991 13 8.49991H7C6.73478 8.49991 6.48043 8.60527 6.29289 8.79281C6.10536 8.98034 6 9.2347 6 9.49991ZM7 12.4999C6.73478 12.4999 6.48043 12.6053 6.29289 12.7928C6.10536 12.9803 6 13.2347 6 13.4999C6 13.7651 6.10536 14.0195 6.29289 14.207C6.48043 14.3946 6.73478 14.4999 7 14.4999H11C11.2652 14.4999 11.5196 14.3946 11.7071 14.207C11.8946 14.0195 12 13.7651 12 13.4999C12 13.2347 11.8946 12.9803 11.7071 12.7928C11.5196 12.6053 11.2652 12.4999 11 12.4999H7Z" fill="white"/>
</svg>
